<?xml version="1.0" standalone="no"?>
<!DOCTYPE svg PUBLIC "-//W3C//DTD SVG 20010904//EN"
 "http://www.w3.org/TR/2001/REC-SVG-20010904/DTD/svg10.dtd">
<svg version="1.0" xmlns="http://www.w3.org/2000/svg"
 width="840.000000pt" height="925.000000pt" viewBox="0 0 840.000000 925.000000"
 preserveAspectRatio="xMidYMid meet">

<g transform="translate(0.000000,925.000000) scale(0.100000,-0.100000)"
fill="#000000" stroke="none">
<path d="M4120 9240 c0 -5 -14 -10 -31 -10 -32 0 -111 -22 -169 -47 -74 -32
-171 -83 -180 -94 -3 -4 -15 -9 -27 -13 -13 -4 -23 -12 -23 -17 0 -5 -9 -9
-20 -9 -11 0 -20 -3 -20 -7 0 -5 -20 -17 -45 -28 -25 -11 -45 -23 -45 -27 0
-5 -6 -8 -14 -8 -8 0 -21 -6 -28 -12 -8 -7 -23 -18 -33 -24 -73 -39 -91 -50
-95 -54 -3 -3 -36 -21 -75 -40 -38 -19 -78 -43 -89 -52 -11 -10 -29 -21 -40
-24 -12 -4 -23 -10 -26 -13 -3 -4 -27 -18 -55 -32 -94 -49 -120 -64 -123 -71
-2 -5 -10 -8 -17 -8 -8 0 -20 -6 -27 -13 -7 -7 -30 -22 -51 -32 -22 -11 -47
-24 -58 -30 -10 -5 -19 -13 -19 -17 0 -5 -6 -8 -14 -8 -8 0 -21 -6 -28 -13 -7
-6 -32 -21 -55 -32 -24 -11 -43 -23 -43 -27 0 -5 -9 -8 -20 -8 -11 0 -20 -4
-20 -9 0 -5 -11 -12 -25 -15 -14 -4 -25 -11 -25 -16 0 -6 -7 -10 -15 -10 -8 0
-15 -4 -15 -10 0 -5 -12 -13 -27 -16 -16 -4 -44 -18 -63 -31 -19 -12 -40 -23
-47 -23 -7 0 -13 -4 -13 -9 0 -5 -8 -11 -17 -14 -20 -6 -95 -49 -103 -58 -3
-3 -27 -16 -55 -30 -27 -13 -52 -26 -55 -30 -3 -3 -21 -13 -40 -22 -38 -19
-72 -39 -80 -47 -3 -3 -16 -11 -30 -18 -14 -6 -52 -28 -85 -47 -33 -20 -72
-41 -87 -48 -16 -6 -28 -15 -28 -19 0 -4 -7 -8 -15 -8 -8 0 -15 -4 -15 -10 0
-5 -12 -13 -27 -16 -16 -4 -44 -18 -63 -31 -19 -12 -40 -23 -47 -23 -7 0 -13
-4 -13 -8 0 -5 -18 -17 -40 -28 -22 -10 -40 -21 -40 -24 0 -3 -20 -14 -45 -25
-25 -11 -45 -23 -45 -27 0 -3 -13 -9 -30 -13 -16 -4 -30 -10 -30 -15 0 -4 -26
-20 -57 -36 -32 -16 -63 -35 -71 -41 -7 -7 -20 -13 -28 -13 -8 0 -14 -4 -14
-10 0 -5 -7 -10 -15 -10 -8 0 -15 -4 -15 -9 0 -5 -12 -12 -26 -15 -14 -4 -35
-15 -46 -26 -11 -10 -34 -22 -49 -25 -16 -4 -29 -10 -29 -14 0 -3 -17 -15 -38
-26 -20 -11 -39 -22 -42 -25 -3 -4 -23 -14 -45 -24 -22 -11 -42 -22 -45 -25
-3 -3 -23 -15 -45 -26 -22 -11 -42 -23 -45 -26 -4 -5 -48 -30 -145 -83 -11 -6
-22 -13 -25 -16 -3 -3 -36 -21 -75 -40 -38 -19 -78 -43 -89 -52 -11 -10 -28
-20 -38 -24 -10 -3 -18 -10 -18 -15 0 -5 -5 -9 -10 -9 -13 0 -23 -8 -111 -89
-38 -35 -69 -68 -69 -74 0 -5 -8 -17 -18 -26 -23 -21 -93 -134 -117 -191 -11
-25 -22 -47 -25 -50 -3 -3 -11 -25 -18 -50 -7 -25 -18 -63 -25 -85 -14 -52
-22 -3909 -8 -3940 5 -11 12 -36 15 -55 8 -56 30 -130 38 -130 5 0 8 -6 8 -13
0 -16 72 -137 103 -175 28 -32 106 -111 138 -137 37 -31 124 -85 137 -85 7 0
12 -4 12 -10 0 -5 9 -10 20 -10 11 0 20 -3 20 -8 0 -4 17 -16 38 -27 20 -11
43 -26 50 -32 7 -7 20 -13 28 -13 8 0 14 -3 14 -8 0 -4 14 -13 30 -20 17 -8
36 -19 43 -26 6 -6 28 -20 47 -29 48 -25 124 -69 130 -76 3 -4 16 -12 30 -19
14 -6 39 -20 55 -30 133 -78 157 -92 166 -92 5 0 9 -4 9 -9 0 -5 11 -12 25
-15 14 -4 25 -11 25 -16 0 -6 9 -10 20 -10 11 0 20 -4 20 -9 0 -5 8 -11 18
-15 9 -3 24 -10 32 -15 44 -29 181 -111 185 -111 3 0 34 -18 69 -40 35 -22 68
-40 75 -40 6 0 11 -4 11 -8 0 -4 26 -21 58 -37 31 -16 71 -39 87 -50 53 -36
70 -45 88 -51 9 -4 17 -10 17 -15 0 -5 6 -9 14 -9 8 0 21 -6 28 -13 7 -6 36
-24 63 -38 108 -57 120 -64 123 -71 2 -5 10 -8 18 -8 8 0 14 -4 14 -10 0 -5 5
-10 11 -10 7 0 40 -18 75 -40 35 -22 68 -40 74 -40 5 0 10 -4 10 -10 0 -5 11
-12 25 -16 14 -3 25 -9 25 -13 0 -3 18 -15 40 -25 22 -11 40 -23 40 -28 0 -4
8 -8 19 -8 10 0 24 -7 31 -15 7 -8 19 -15 26 -15 8 0 14 -3 14 -7 0 -5 18 -17
40 -27 22 -11 40 -23 40 -28 0 -4 5 -8 11 -8 7 0 40 -18 75 -40 35 -22 66 -40
69 -40 3 0 34 -18 69 -40 35 -22 68 -40 74 -40 6 0 12 -3 14 -7 3 -9 84 -63
93 -63 3 0 34 -18 69 -40 35 -22 68 -40 75 -40 6 0 11 -4 11 -9 0 -5 8 -11 18
-15 18 -6 54 -27 62 -37 3 -4 15 -9 28 -13 12 -4 22 -12 22 -17 0 -5 9 -9 20
-9 11 0 20 -4 20 -9 0 -5 8 -11 18 -15 17 -5 52 -26 62 -36 3 -3 23 -14 45
-25 22 -11 86 -48 141 -82 56 -35 107 -63 113 -63 6 0 11 -4 11 -9 0 -5 8 -11
18 -15 9 -3 24 -10 32 -15 13 -8 87 -42 155 -71 43 -18 215 -42 276 -37 87 6
197 25 234 41 17 7 45 20 63 27 17 8 32 17 32 21 0 5 5 8 11 8 13 0 82 31 89
40 3 4 21 15 40 26 19 10 41 25 48 32 7 6 19 12 27 12 7 0 15 3 17 8 2 4 28
20 58 36 30 16 82 47 116 68 34 21 66 38 73 38 6 0 11 5 11 10 0 6 6 10 14 10
7 0 19 7 26 15 7 8 21 15 31 15 11 0 19 4 19 8 0 5 17 17 37 28 21 10 44 25
51 31 7 7 20 13 28 13 8 0 14 5 14 10 0 6 7 10 15 10 8 0 15 4 15 9 0 5 11 12
25 15 14 4 25 11 25 16 0 6 9 10 20 10 11 0 20 3 20 8 0 7 30 25 63 38 9 3 17
10 17 15 0 5 6 9 14 9 8 0 21 6 28 13 13 12 88 54 156 86 17 8 32 19 32 23 0
4 6 8 13 8 7 0 25 12 40 26 21 19 27 33 23 48 -38 142 -29 606 13 711 5 11 14
38 21 60 14 47 36 99 56 137 8 15 27 50 42 80 15 29 35 62 45 73 10 11 27 35
38 53 12 17 24 32 28 32 4 0 16 16 27 35 10 19 21 35 24 35 3 0 33 26 66 58
73 69 101 92 113 92 4 0 21 11 36 24 37 32 180 106 205 106 11 0 20 4 20 10 0
5 16 12 35 16 19 3 35 10 35 14 0 4 12 10 28 12 46 9 126 30 144 39 10 5 28 9
42 9 13 0 43 7 66 15 23 8 55 15 70 15 l27 0 5 167 c3 93 10 179 15 193 6 14
16 50 23 80 7 30 18 69 25 85 7 17 21 53 31 80 10 28 20 52 23 55 4 3 19 31
35 63 16 32 39 66 52 76 13 11 24 23 24 28 0 11 63 86 94 112 10 9 35 32 55
52 20 19 51 44 69 54 17 11 32 22 32 26 0 4 11 10 25 13 14 4 25 11 25 16 0 6
6 10 14 10 8 0 16 3 18 8 2 4 35 23 73 42 39 19 72 38 73 43 2 4 8 7 13 7 6 0
34 11 62 23 108 49 263 107 287 107 10 0 21 4 25 9 3 6 26 13 50 17 25 3 48
10 51 15 3 5 16 9 30 9 13 0 32 4 42 10 17 9 89 27 150 37 l32 5 -1 1282 c0
704 -4 1304 -9 1331 -5 28 -11 70 -15 95 -7 46 -10 57 -39 123 -9 21 -16 46
-16 57 0 10 -3 20 -7 22 -11 4 -43 67 -43 83 0 7 -4 15 -8 17 -4 2 -23 25 -42
52 -36 52 -155 176 -168 176 -4 0 -18 10 -32 23 -31 28 -156 107 -170 107 -5
0 -10 4 -10 9 0 5 -10 13 -22 17 -13 4 -25 9 -28 13 -3 3 -27 18 -55 32 -71
36 -119 63 -125 69 -8 8 -43 28 -98 56 -30 15 -59 32 -66 38 -14 13 -37 26
-118 68 -35 18 -65 35 -68 38 -10 10 -45 31 -62 36 -10 4 -18 10 -18 15 0 5
-9 9 -19 9 -11 0 -22 4 -25 9 -3 5 -24 18 -45 29 -61 32 -84 46 -99 60 -7 6
-20 12 -28 12 -8 0 -14 5 -14 10 0 6 -7 10 -17 10 -9 0 -30 10 -47 23 -17 12
-49 31 -71 42 -22 11 -55 30 -73 42 -19 12 -51 30 -73 40 -21 9 -39 20 -39 25
0 4 -7 8 -15 8 -8 0 -15 5 -15 10 0 6 -7 10 -15 10 -14 0 -61 25 -75 40 -5 5
-25 16 -105 59 -16 9 -32 18 -35 21 -8 8 -42 28 -80 47 -19 9 -41 23 -48 30
-7 7 -20 13 -28 13 -8 0 -14 5 -14 10 0 6 -4 10 -9 10 -4 0 -39 18 -77 41 -38
22 -77 44 -86 50 -10 5 -26 14 -35 19 -10 6 -26 13 -35 16 -10 4 -18 10 -18
15 0 5 -7 9 -15 9 -8 0 -44 18 -80 40 -36 22 -70 40 -75 40 -6 0 -10 4 -10 9
0 5 -11 12 -25 15 -14 4 -25 11 -25 16 0 6 -9 10 -20 10 -11 0 -20 5 -20 10 0
6 -5 10 -11 10 -7 0 -39 17 -73 38 -34 21 -79 46 -101 57 -22 11 -42 22 -45
25 -3 3 -22 14 -42 24 -21 11 -38 23 -38 28 0 4 -7 8 -15 8 -14 0 -54 21 -110
58 -11 7 -28 15 -37 18 -10 4 -18 10 -18 14 0 4 -11 11 -25 14 -14 4 -25 11
-25 16 0 6 -9 10 -19 10 -11 0 -21 3 -23 8 -3 7 -29 22 -123 71 -27 14 -52 28
-55 32 -3 3 -21 14 -40 25 -19 10 -37 21 -40 24 -3 3 -21 13 -40 24 -44 23
-132 71 -162 88 -13 7 -25 15 -28 18 -3 3 -25 14 -50 25 -25 11 -47 22 -50 25
-8 9 -92 32 -137 37 -24 3 -43 9 -43 14 0 5 -40 9 -90 9 -53 0 -90 -4 -90 -10z
m228 -690 c2 -6 13 -10 25 -10 22 0 143 -56 164 -76 7 -7 34 -22 60 -35 26
-12 50 -26 53 -29 3 -4 15 -10 28 -14 12 -4 22 -12 22 -17 0 -5 6 -9 14 -9 8
0 16 -3 18 -7 2 -5 21 -17 43 -28 22 -11 67 -37 100 -57 33 -21 66 -38 73 -38
6 0 12 -4 12 -8 0 -5 27 -23 60 -40 77 -41 104 -56 110 -62 10 -10 45 -31 63
-36 9 -4 17 -10 17 -14 0 -4 11 -11 25 -14 14 -4 25 -11 25 -16 0 -6 7 -10 15
-10 8 0 15 -4 15 -9 0 -5 11 -12 25 -15 14 -4 25 -11 25 -16 0 -6 9 -10 20
-10 11 0 20 -4 20 -9 0 -5 10 -11 23 -15 12 -3 31 -13 43 -23 11 -10 49 -33
84 -52 36 -19 81 -45 100 -58 19 -13 40 -23 47 -23 7 0 13 -4 13 -10 0 -5 7
-10 15 -10 8 0 15 -4 15 -10 0 -5 11 -12 25 -16 14 -3 25 -10 25 -15 0 -5 6
-9 14 -9 14 0 76 -29 86 -41 3 -3 21 -14 40 -25 19 -10 37 -22 40 -25 3 -3 21
-14 40 -25 19 -10 37 -21 40 -24 3 -3 24 -14 47 -25 24 -11 43 -23 43 -27 0
-5 6 -8 14 -8 8 0 21 -6 28 -13 7 -7 29 -21 48 -30 19 -10 44 -23 55 -30 97
-60 144 -87 153 -87 6 0 12 -4 14 -8 3 -8 41 -32 128 -78 19 -11 37 -21 40
-24 10 -10 45 -31 63 -36 9 -4 17 -10 17 -15 0 -5 8 -9 17 -9 9 0 24 -6 32
-14 9 -8 39 -26 66 -42 28 -15 52 -30 55 -33 8 -10 44 -31 63 -37 9 -4 17 -10
17 -15 0 -5 6 -9 13 -9 8 0 55 -25 105 -55 50 -30 96 -55 102 -55 5 0 10 -4
10 -9 0 -5 8 -11 18 -15 22 -8 145 -76 152 -85 3 -3 21 -15 40 -25 19 -11 37
-22 40 -25 3 -3 22 -15 43 -25 20 -11 37 -23 37 -28 0 -4 6 -8 14 -8 19 0 136
-117 136 -136 0 -8 5 -14 10 -14 6 0 18 -17 28 -37 9 -21 19 -40 22 -43 11
-11 40 -82 40 -98 0 -10 6 -24 13 -30 9 -10 13 -222 15 -974 3 -912 2 -961
-15 -974 -10 -7 -24 -14 -31 -14 -8 0 -29 -7 -48 -15 -19 -8 -49 -22 -68 -30
-19 -8 -41 -15 -50 -15 -9 0 -16 -4 -16 -10 0 -5 -11 -10 -25 -10 -14 0 -25
-4 -25 -9 0 -5 -15 -13 -32 -16 -18 -4 -35 -10 -38 -14 -8 -10 -80 -41 -95
-41 -8 0 -15 -3 -15 -8 0 -6 -22 -19 -90 -51 -26 -13 -85 -46 -90 -51 -8 -8
-124 -85 -135 -89 -5 -2 -20 -15 -32 -28 -12 -12 -24 -23 -27 -23 -3 0 -7 147
-10 328 -4 316 -10 416 -26 437 -4 6 -11 25 -15 43 -3 17 -11 32 -16 32 -5 0
-9 7 -9 16 0 8 -6 22 -12 29 -7 8 -26 32 -43 53 -16 22 -50 54 -75 73 -25 19
-47 36 -50 39 -3 3 -25 14 -50 25 -25 11 -47 22 -50 26 -3 3 -30 12 -60 19
-45 12 -449 15 -2335 17 -2140 4 -2286 3 -2370 -14 -49 -9 -92 -20 -95 -23 -8
-8 -71 -40 -80 -40 -10 0 -47 -31 -99 -80 -64 -63 -91 -105 -116 -180 -9 -30
-21 -65 -26 -78 -13 -33 -12 -849 1 -857 6 -3 10 -19 10 -35 0 -16 6 -44 14
-62 8 -18 17 -40 20 -48 16 -41 84 -123 138 -166 36 -29 102 -65 159 -89 l62
-25 2173 0 c1628 0 2179 -3 2199 -12 15 -7 25 -19 25 -33 0 -27 -51 -76 -110
-106 l-45 -23 -2070 -2 c-1504 -3 -2093 -7 -2154 -15 -51 -7 -103 -21 -129
-35 -25 -13 -49 -24 -53 -24 -10 0 -24 -11 -96 -78 -29 -27 -53 -54 -53 -60 0
-7 -4 -12 -9 -12 -5 0 -13 -10 -17 -22 -4 -13 -10 -25 -13 -28 -12 -9 -41 -95
-41 -121 0 -14 -5 -30 -11 -36 -11 -11 -7 -446 5 -513 4 -19 2 -42 -3 -50 -9
-13 -14 -13 -38 2 -15 10 -48 28 -73 40 -25 13 -46 26 -48 31 -2 4 -10 7 -17
7 -8 0 -20 6 -27 13 -7 7 -33 21 -58 32 -25 11 -54 28 -64 37 -11 10 -29 21
-40 24 -12 4 -23 10 -26 13 -3 4 -24 15 -47 25 -24 11 -43 23 -43 28 0 4 -5 8
-11 8 -38 0 -249 214 -249 252 0 8 -4 18 -9 24 -35 34 -35 71 -38 1809 -3
1573 -2 1715 13 1773 9 34 21 62 25 62 5 0 9 6 9 14 0 14 30 77 41 86 3 3 8
10 10 16 7 19 72 96 108 129 19 16 45 40 58 53 13 12 28 22 33 22 5 0 15 6 22
13 21 20 75 47 92 47 9 0 16 3 16 8 0 4 17 16 38 27 20 11 39 23 42 26 6 9
130 77 153 85 9 4 17 10 17 15 0 5 5 9 11 9 5 0 52 25 104 55 51 30 98 55 104
55 6 0 11 5 11 10 0 6 7 10 15 10 8 0 15 5 15 10 0 6 6 10 14 10 8 0 21 6 28
13 7 6 31 21 53 32 22 11 42 22 45 25 3 3 24 14 47 25 24 11 43 22 43 25 0 3
26 19 58 35 31 17 63 36 70 43 7 6 20 12 28 12 8 0 14 4 14 9 0 5 10 11 23 15
12 3 31 13 42 23 12 10 38 27 60 38 22 11 67 36 101 57 34 21 66 38 73 38 6 0
11 5 11 10 0 6 9 10 20 10 11 0 20 5 20 10 0 6 6 10 14 10 8 0 21 6 28 13 7 6
31 21 53 32 22 11 42 22 45 25 3 3 23 14 45 25 22 11 48 28 60 38 11 10 30 20
42 23 13 4 23 9 23 13 0 3 20 15 45 26 25 11 45 23 45 27 0 5 5 8 11 8 6 0 50
24 97 53 48 30 102 60 120 68 17 8 32 17 32 20 0 4 11 10 25 13 14 4 25 11 25
16 0 6 6 10 14 10 8 0 16 3 18 8 2 4 34 23 73 42 38 19 75 40 82 47 7 6 26 17
43 25 16 7 30 15 30 18 0 3 20 14 45 25 25 11 45 23 45 28 0 4 5 7 11 7 7 0
40 18 75 40 35 22 70 40 79 40 8 0 15 4 15 8 0 5 18 17 40 28 22 10 40 22 40
25 0 4 11 10 25 13 14 4 25 11 25 16 0 6 6 10 14 10 8 0 16 3 18 8 2 4 35 23
73 42 39 19 72 37 75 40 3 3 23 14 45 25 22 11 42 22 45 25 11 11 82 40 98 40
10 0 22 4 28 9 5 5 25 12 44 14 55 8 235 -2 238 -13z m809 -4161 c71 -40 78
-53 78 -155 0 -84 -2 -95 -24 -118 -14 -14 -30 -26 -37 -26 -7 0 -14 -5 -16
-12 -2 -6 -31 -13 -66 -16 -49 -3 -69 0 -103 17 -47 25 -78 58 -79 83 0 9 -4
20 -10 23 -5 3 -10 28 -10 56 0 27 5 49 10 49 6 0 10 6 10 14 0 21 52 73 91
89 50 22 112 21 156 -4z m838 11 c3 -5 14 -10 25 -10 20 0 80 -63 80 -85 0 -8
5 -15 10 -15 6 0 10 -27 10 -60 0 -33 -4 -60 -9 -60 -5 0 -12 -11 -15 -25 -4
-14 -11 -25 -16 -25 -6 0 -10 -6 -10 -13 0 -18 -74 -47 -120 -47 -76 0 -137
39 -164 104 -38 92 -5 181 86 231 28 16 114 19 123 5z m-3017 -68 c18 -16 32
-36 32 -45 0 -9 5 -19 10 -22 6 -3 10 -13 10 -21 0 -25 -42 -104 -55 -104 -7
0 -15 -6 -17 -12 -4 -10 -85 -14 -353 -16 l-348 -3 -38 26 c-22 14 -39 32 -39
40 0 8 -4 15 -10 15 -5 0 -10 16 -10 35 0 52 32 115 59 115 6 0 11 5 11 10 0
6 126 10 358 10 l358 0 32 -28z m2155 -1789 c15 -3 27 -9 27 -14 0 -5 7 -9 15
-9 8 0 15 -3 15 -7 0 -5 11 -21 25 -37 21 -25 25 -39 25 -97 0 -76 -21 -126
-57 -135 -13 -4 -23 -10 -23 -14 0 -4 -21 -13 -47 -19 -49 -11 -83 -5 -143 28
-35 20 -46 33 -64 76 -18 42 -22 125 -6 125 6 0 10 6 10 13 0 18 48 67 65 67
8 0 15 4 15 9 0 13 62 30 90 25 14 -3 37 -8 53 -11z m-2208 -48 c32 -5 85 -45
85 -64 0 -6 5 -11 10 -11 6 0 10 -21 10 -46 0 -40 -5 -50 -40 -85 l-39 -39
-346 0 c-241 0 -353 3 -368 11 -44 24 -77 71 -77 111 0 56 24 91 85 124 20 10
612 9 680 -1z"/>
<path d="M1775 6923 c-16 -3 -34 -9 -39 -14 -6 -5 -18 -9 -28 -9 -10 0 -18 -4
-18 -9 0 -5 -13 -14 -30 -19 -33 -12 -102 -63 -137 -102 -51 -57 -63 -74 -63
-87 0 -7 -4 -13 -10 -13 -5 0 -10 -8 -10 -17 0 -10 -7 -31 -15 -47 -8 -15 -15
-41 -15 -57 0 -16 -4 -29 -10 -29 -13 0 -14 -782 -1 -824 36 -118 46 -146 52
-146 4 0 11 -10 15 -22 3 -12 12 -27 18 -33 6 -7 22 -26 35 -43 13 -18 28 -32
33 -32 5 0 20 -11 33 -24 13 -13 37 -30 54 -37 17 -8 31 -17 31 -21 0 -4 16
-10 35 -14 19 -3 38 -10 41 -15 3 -5 18 -9 34 -9 16 0 32 -4 35 -10 8 -14
4685 -14 4685 0 0 5 11 10 24 10 32 0 156 49 156 62 0 5 7 8 15 8 19 0 123
103 158 158 15 23 30 56 34 72 3 17 9 30 13 30 18 0 23 99 23 475 0 379 -5
485 -23 485 -4 0 -10 18 -14 40 -3 22 -10 40 -15 40 -5 0 -12 11 -15 25 -4 14
-11 25 -16 25 -6 0 -10 5 -10 11 0 11 -94 105 -126 127 -10 6 -30 17 -44 23
-14 5 -38 18 -55 27 -28 16 -196 17 -2415 18 -1312 1 -2398 -1 -2415 -3z
m3362 -655 c15 -7 34 -18 41 -25 7 -7 18 -13 23 -13 5 0 9 -5 9 -12 0 -6 7
-19 16 -29 12 -13 16 -37 15 -91 -1 -76 -15 -109 -57 -132 -10 -6 -21 -13 -24
-16 -13 -13 -64 -30 -92 -30 -32 0 -113 41 -136 69 -36 45 -59 171 -32 171 6
0 10 6 10 13 0 23 33 54 86 81 54 28 99 32 141 14z m858 2 c3 -5 15 -10 26
-10 10 0 19 -4 19 -10 0 -5 7 -10 15 -10 8 0 15 -7 15 -15 0 -8 4 -15 10 -15
5 0 12 -11 16 -25 3 -14 10 -25 15 -25 5 0 9 -27 9 -60 0 -33 -4 -60 -10 -60
-5 0 -10 -6 -10 -14 0 -20 -64 -86 -83 -86 -9 0 -28 -5 -42 -12 -19 -9 -34 -8
-65 2 -22 7 -40 17 -40 22 0 4 -8 8 -18 8 -59 0 -106 160 -65 220 21 31 62 71
88 87 24 15 111 17 120 3z m-3014 -81 c16 -11 29 -27 29 -35 0 -8 5 -14 10
-14 15 0 12 -63 -6 -98 -8 -17 -28 -41 -44 -52 -28 -20 -42 -21 -370 -21 -247
0 -349 3 -369 12 -58 26 -89 118 -58 171 34 60 9 56 410 57 358 1 370 0 398
-20z"/>
</g>
</svg>
